# xmcd
#
# Track frame offsets: 
#        150
#        17362
#        40042
#        64438
#        80470
#        98219
#        112406
#        131429
#        149509
#        172978
#        187640
#        206083
#        227333
#        259142
#        284225
#        306582
#
# Disc length: 4324 seconds
#
# Revision: 0
# Processed by: cddbd v1.5.2PL0 Copyright (c) Steve Scherf et al.
# Submitted via: ExactAudioCopyFreeDBPlugin 1.0
#
DISCID=e810e210
DTITLE=Rodney Tate and Angela Adkisson - The B.B. King Blues Club All-
DTITLE=Stars Band
DYEAR=1900
DGENRE=Blues
TTITLE0=Rodney Tate - Soul Man
TTITLE1=Rodney Tate - Mustang Sally
TTITLE2=Angela Adkisson - At Last
TTITLE3=Angela Adkisson - What's Love Got To Do With It?
TTITLE4=Angela Adkisson - Let's Stay Together
TTITLE5=Angela Adkisson - (You Make Me Feel Like) A Natural Woman
TTITLE6=Rodney Tate - Sweet Home Chicago
TTITLE7=Angela Adkisson - Midnight Train to Georgia
TTITLE8=Rodney Tate - Born Under A Bad Sign
TTITLE9=Angela Adkisson - I'll Take You There
TTITLE10=Rodney Tate - Pride And Joy
TTITLE11=Angela Adkisson - I Will Always Love You
TTITLE12=Rodney Tate - Manish Boy
TTITLE13=Rodney Tate - Try A Little Tenderness
TTITLE14=Angela Adkisson - Proud Mary
TTITLE15=Rodney Tate - Hold On, I'm Coming
EXTD=
EXTT0=
EXTT1=
EXTT2=
EXTT3=
EXTT4=
EXTT5=
EXTT6=
EXTT7=
EXTT8=
EXTT9=
EXTT10=
EXTT11=
EXTT12=
EXTT13=
EXTT14=
EXTT15=
PLAYORDER=
